<svg width="3172" height="629" viewBox="0 0 3172 629" fill="none" xmlns="http://www.w3.org/2000/svg">
<path d="M373.678 26.5332L384.178 30.5332L384.278 30.5713L395.416 41.709L395.453 41.79L436.952 131.287L474.452 210.787L474.453 210.789L500.453 266.789L500.455 266.792L524.955 320.292L535 340.382V346C535 346.466 534.871 347.156 534.688 347.89C534.502 348.638 534.247 349.477 533.972 350.265C533.697 351.05 533.398 351.797 533.119 352.354C532.981 352.631 532.839 352.88 532.698 353.066C532.628 353.159 532.546 353.254 532.45 353.33C532.413 353.36 532.362 353.393 532.301 353.424L530.391 355.812L530.115 356.156L529.739 355.927C529.739 355.927 529.737 355.925 529.736 355.925C529.734 355.923 529.73 355.922 529.726 355.919C529.715 355.913 529.699 355.903 529.677 355.89C529.632 355.864 529.562 355.824 529.469 355.772C529.282 355.669 528.998 355.517 528.614 355.328C527.846 354.949 526.679 354.419 525.097 353.819C521.932 352.62 517.104 351.144 510.481 350.056C497.237 347.879 476.8 347.251 448.106 353.488C390.639 365.981 380.172 371.471 362.203 379.457C344.245 387.439 292.793 413.41 231.84 469.867C201.403 498.059 179.31 534.374 164.823 563.659C157.581 578.299 152.244 591.175 148.717 600.39C146.953 604.997 145.643 608.689 144.773 611.228C144.339 612.497 144.014 613.478 143.799 614.142C143.691 614.473 143.611 614.725 143.558 614.894C143.531 614.978 143.51 615.043 143.497 615.085C143.491 615.106 143.486 615.121 143.482 615.132L143.478 615.146L143 615L143.478 615.147L143.441 615.266L138.318 620.389L138.277 620.416L138.276 620.417C138.276 620.417 138.274 620.418 138.272 620.419C138.27 620.421 138.265 620.424 138.26 620.428C138.248 620.435 138.231 620.446 138.209 620.461C138.165 620.49 138.1 620.534 138.017 620.589C137.85 620.699 137.612 620.858 137.323 621.05C136.745 621.433 135.962 621.949 135.148 622.48C133.541 623.532 131.757 624.681 131.224 624.947C130.985 625.067 130.607 625.287 130.066 625.584C129.541 625.873 128.892 626.217 128.161 626.553C126.704 627.222 124.89 627.874 123.033 627.999L123.017 628H0V624.39L0.0458984 624.29L9.5459 603.79L33.0459 552.791L33.0479 552.786L76.5479 460.786L76.5488 460.785L149.549 307.285L249.547 92.2891L273.046 41.291L273.087 41.2021L273.157 41.1357L281.03 33.7246C281.04 33.6329 281.072 33.5685 281.08 33.5518C281.106 33.4998 281.136 33.4641 281.146 33.4512C281.161 33.4345 281.173 33.4222 281.181 33.415C281.196 33.4007 281.208 33.3896 281.214 33.3848C281.227 33.3744 281.238 33.3666 281.244 33.3623C281.257 33.3529 281.272 33.3428 281.285 33.334C281.483 33.2024 282.494 32.5704 285.738 30.5742C289.037 28.544 291.962 27.5247 294.069 27.0137C295.123 26.7583 295.973 26.6301 296.562 26.5654C296.857 26.5331 297.088 26.5171 297.246 26.5088C297.325 26.5046 297.387 26.5021 297.43 26.501C297.451 26.5004 297.468 26.5001 297.479 26.5H373.592L373.678 26.5332ZM335.5 143.5C322.95 145 322.5 151 322.5 151L261.5 304.5V306.5C261.5 308 263 313 269.5 317C276 321 281.5 321.5 289 321C296.5 320.5 335.5 306.5 335.5 306.5L390 286.5C390 286.5 392.5 285.5 394 284.5C395.5 283.5 400.864 277.5 399.432 274C398 270.501 376.017 223.535 376 223.5L341.912 147C341.912 147 338 143.5 335.5 143.5Z" fill="white"/>
<path d="M330 468.5C330 468.5 416 423.2 428 450L525.5 628H563H662L666 626V621L662 612.5L551.5 395C551.5 395 525.5 377.5 451.5 390C427.825 393.999 354.5 414.5 330 468.5Z" fill="white" stroke="white"/>
<path d="M713.006 489.504C695.723 489.504 680.158 486.427 666.308 480.271C652.577 473.998 641.687 464.765 633.638 452.572C625.707 440.38 621.741 425.347 621.741 407.473C621.741 392.085 624.582 379.36 630.264 369.298C635.946 359.237 643.699 351.188 653.524 345.151C663.349 339.114 674.417 334.556 686.727 331.479C699.156 328.283 712 325.974 725.257 324.554C741.237 322.897 754.199 321.417 764.142 320.115C774.085 318.695 781.306 316.564 785.804 313.723C790.42 310.764 792.729 306.206 792.729 300.051V298.986C792.729 285.61 788.763 275.252 780.832 267.913C772.902 260.574 761.479 256.905 746.564 256.905C730.821 256.905 718.332 260.338 709.099 267.203C699.985 274.069 693.83 282.177 690.634 291.528L630.619 283.006C635.354 266.434 643.167 252.584 654.057 241.457C664.947 230.212 678.264 221.808 694.007 216.244C709.75 210.562 727.151 207.722 746.209 207.722C759.348 207.722 772.428 209.26 785.449 212.338C798.47 215.416 810.366 220.506 821.138 227.608C831.91 234.592 840.551 244.121 847.061 256.195C853.69 268.268 857.004 283.361 857.004 301.472V484H795.214V446.536H793.084C789.178 454.111 783.673 461.214 776.571 467.842C769.587 474.353 760.768 479.62 750.115 483.645C739.58 487.551 727.21 489.504 713.006 489.504ZM729.696 442.274C742.598 442.274 753.785 439.729 763.254 434.639C772.724 429.431 780.004 422.565 785.094 414.043C790.302 405.52 792.906 396.228 792.906 386.166V354.028C790.894 355.686 787.461 357.224 782.608 358.645C777.873 360.065 772.546 361.308 766.628 362.374C760.709 363.439 754.85 364.386 749.05 365.214C743.25 366.043 738.219 366.753 733.957 367.345C724.369 368.647 715.787 370.778 708.212 373.737C700.636 376.696 694.658 380.839 690.278 386.166C685.899 391.375 683.709 398.122 683.709 406.408C683.709 418.245 688.029 427.182 696.67 433.219C705.312 439.256 716.32 442.274 729.696 442.274ZM1137.19 283.361L1078.6 289.753C1076.94 283.834 1074.04 278.271 1069.89 273.062C1065.87 267.854 1060.43 263.652 1053.56 260.456C1046.69 257.26 1038.29 255.662 1028.35 255.662C1014.97 255.662 1003.73 258.562 994.611 264.362C985.615 270.162 981.176 277.679 981.294 286.912C981.176 294.843 984.076 301.294 989.994 306.266C996.031 311.237 1005.97 315.321 1019.82 318.517L1066.34 328.46C1092.15 334.024 1111.32 342.842 1123.87 354.916C1136.54 366.99 1142.93 382.793 1143.05 402.324C1142.93 419.488 1137.9 434.639 1127.96 447.778C1118.13 460.799 1104.46 470.979 1086.94 478.318C1069.42 485.657 1049.3 489.327 1026.57 489.327C993.19 489.327 966.32 482.343 945.96 468.375C925.6 454.289 913.467 434.698 909.561 409.604L972.239 403.567C975.08 415.877 981.116 425.17 990.349 431.443C999.582 437.717 1011.6 440.854 1026.39 440.854C1041.66 440.854 1053.91 437.717 1063.15 431.443C1072.5 425.17 1077.17 417.416 1077.17 408.183C1077.17 400.371 1074.16 393.92 1068.12 388.83C1062.2 383.74 1052.97 379.833 1040.42 377.111L993.901 367.345C967.741 361.9 948.387 352.726 935.839 339.824C923.292 326.803 917.078 310.349 917.196 290.463C917.078 273.654 921.635 259.095 930.868 246.784C940.219 234.355 953.181 224.767 969.753 218.02C986.443 211.154 1005.68 207.722 1027.46 207.722C1059.42 207.722 1084.57 214.528 1102.92 228.141C1121.39 241.753 1132.81 260.16 1137.19 283.361ZM1332.24 211.273V260.989H1175.45V211.273H1332.24ZM1214.16 145.932H1278.44V401.969C1278.44 410.61 1279.74 417.239 1282.34 421.855C1285.06 426.353 1288.62 429.431 1293 431.088C1297.37 432.745 1302.23 433.574 1307.55 433.574C1311.58 433.574 1315.25 433.278 1318.56 432.686C1322 432.094 1324.6 431.562 1326.38 431.088L1337.21 481.337C1333.77 482.52 1328.86 483.822 1322.47 485.243C1316.2 486.663 1308.5 487.492 1299.39 487.729C1283.29 488.202 1268.79 485.776 1255.89 480.449C1242.98 475.004 1232.74 466.599 1225.17 455.236C1217.71 443.872 1214.04 429.668 1214.16 412.622V145.932ZM1385.99 484V211.273H1448.31V256.727H1451.15C1456.13 240.984 1464.65 228.851 1476.72 220.328C1488.91 211.687 1502.82 207.366 1518.45 207.366C1522 207.366 1525.96 207.544 1530.34 207.899C1534.84 208.136 1538.57 208.55 1541.53 209.142V268.268C1538.81 267.321 1534.49 266.493 1528.57 265.783C1522.77 264.954 1517.15 264.54 1511.7 264.54C1499.98 264.54 1489.45 267.085 1480.1 272.175C1470.86 277.146 1463.58 284.071 1458.26 292.949C1452.93 301.827 1450.27 312.066 1450.27 323.666V484H1385.99ZM1691.97 489.327C1665.33 489.327 1642.25 483.467 1622.72 471.749C1603.19 460.03 1588.04 443.635 1577.26 422.565C1566.61 401.495 1561.28 376.874 1561.28 348.702C1561.28 320.529 1566.61 295.849 1577.26 274.661C1588.04 253.472 1603.19 237.018 1622.72 225.3C1642.25 213.581 1665.33 207.722 1691.97 207.722C1718.6 207.722 1741.68 213.581 1761.21 225.3C1780.74 237.018 1795.84 253.472 1806.49 274.661C1817.26 295.849 1822.65 320.529 1822.65 348.702C1822.65 376.874 1817.26 401.495 1806.49 422.565C1795.84 443.635 1780.74 460.03 1761.21 471.749C1741.68 483.467 1718.6 489.327 1691.97 489.327ZM1692.32 437.835C1706.76 437.835 1718.84 433.87 1728.54 425.939C1738.25 417.89 1745.47 407.118 1750.2 393.624C1755.06 380.129 1757.48 365.096 1757.48 348.524C1757.48 331.834 1755.06 316.741 1750.2 303.247C1745.47 289.634 1738.25 278.804 1728.54 270.754C1718.84 262.705 1706.76 258.68 1692.32 258.68C1677.52 258.68 1665.21 262.705 1655.39 270.754C1645.68 278.804 1638.4 289.634 1633.55 303.247C1628.81 316.741 1626.45 331.834 1626.45 348.524C1626.45 365.096 1628.81 380.129 1633.55 393.624C1638.4 407.118 1645.68 417.89 1655.39 425.939C1665.21 433.87 1677.52 437.835 1692.32 437.835ZM2111.53 211.273L2014.41 484H1943.39L1846.26 211.273H1914.8L1977.48 413.865H1980.32L2043.17 211.273H2111.53ZM2156.01 484V211.273H2220.29V484H2156.01ZM2188.33 172.565C2178.15 172.565 2169.39 169.192 2162.05 162.445C2154.71 155.579 2151.04 147.352 2151.04 137.764C2151.04 128.058 2154.71 119.831 2162.05 113.084C2169.39 106.218 2178.15 102.786 2188.33 102.786C2198.62 102.786 2207.38 106.218 2214.6 113.084C2221.94 119.831 2225.61 128.058 2225.61 137.764C2225.61 147.352 2221.94 155.579 2214.6 162.445C2207.38 169.192 2198.62 172.565 2188.33 172.565ZM2364.86 489.504C2347.58 489.504 2332.01 486.427 2318.16 480.271C2304.43 473.998 2293.54 464.765 2285.49 452.572C2277.56 440.38 2273.6 425.347 2273.6 407.473C2273.6 392.085 2276.44 379.36 2282.12 369.298C2287.8 359.237 2295.55 351.188 2305.38 345.151C2315.2 339.114 2326.27 334.556 2338.58 331.479C2351.01 328.283 2363.85 325.974 2377.11 324.554C2393.09 322.897 2406.05 321.417 2416 320.115C2425.94 318.695 2433.16 316.564 2437.66 313.723C2442.28 310.764 2444.58 306.206 2444.58 300.051V298.986C2444.58 285.61 2440.62 275.252 2432.69 267.913C2424.76 260.574 2413.33 256.905 2398.42 256.905C2382.68 256.905 2370.19 260.338 2360.95 267.203C2351.84 274.069 2345.69 282.177 2342.49 291.528L2282.47 283.006C2287.21 266.434 2295.02 252.584 2305.91 241.457C2316.8 230.212 2330.12 221.808 2345.86 216.244C2361.61 210.562 2379.01 207.722 2398.06 207.722C2411.2 207.722 2424.28 209.26 2437.3 212.338C2450.33 215.416 2462.22 220.506 2472.99 227.608C2483.77 234.592 2492.41 244.121 2498.92 256.195C2505.55 268.268 2508.86 283.361 2508.86 301.472V484H2447.07V446.536H2444.94C2441.03 454.111 2435.53 461.214 2428.43 467.842C2421.44 474.353 2412.62 479.62 2401.97 483.645C2391.44 487.551 2379.07 489.504 2364.86 489.504ZM2381.55 442.274C2394.45 442.274 2405.64 439.729 2415.11 434.639C2424.58 429.431 2431.86 422.565 2436.95 414.043C2442.16 405.52 2444.76 396.228 2444.76 386.166V354.028C2442.75 355.686 2439.32 357.224 2434.46 358.645C2429.73 360.065 2424.4 361.308 2418.48 362.374C2412.56 363.439 2406.71 364.386 2400.91 365.214C2395.1 366.043 2390.07 366.753 2385.81 367.345C2376.22 368.647 2367.64 370.778 2360.07 373.737C2352.49 376.696 2346.51 380.839 2342.13 386.166C2337.75 391.375 2335.56 398.122 2335.56 406.408C2335.56 418.245 2339.88 427.182 2348.53 433.219C2357.17 439.256 2368.18 442.274 2381.55 442.274ZM2747.05 484H2676.74L2804.76 120.364H2886.08L3014.28 484H2943.96L2846.84 194.938H2844L2747.05 484ZM2749.36 341.422H2941.12V394.334H2749.36V341.422ZM3128.04 120.364V484H3062.17V120.364H3128.04Z" fill="white"/>
</svg>
