<svg width="667" height="602" viewBox="0 0 667 602" fill="none" xmlns="http://www.w3.org/2000/svg">
<path d="M373.678 0.0332031L384.178 4.0332L384.278 4.07129L395.416 15.209L395.453 15.29L436.952 104.787L474.452 184.287L474.453 184.289L500.453 240.289L500.455 240.292L524.955 293.792L535 313.882V319.5C535 319.966 534.871 320.656 534.688 321.39C534.502 322.138 534.247 322.977 533.972 323.765C533.697 324.55 533.398 325.297 533.119 325.854C532.981 326.131 532.839 326.38 532.698 326.566C532.628 326.659 532.546 326.754 532.45 326.83C532.413 326.86 532.362 326.893 532.301 326.924L530.391 329.312L530.115 329.656L529.739 329.427C529.739 329.427 529.737 329.425 529.736 329.425C529.734 329.423 529.73 329.422 529.726 329.419C529.715 329.413 529.699 329.403 529.677 329.39C529.632 329.364 529.562 329.324 529.469 329.272C529.282 329.169 528.998 329.017 528.614 328.828C527.846 328.449 526.679 327.919 525.097 327.319C521.932 326.12 517.104 324.644 510.481 323.556C497.237 321.379 476.8 320.751 448.106 326.988C390.639 339.481 380.172 344.971 362.203 352.957C344.245 360.939 292.793 386.91 231.84 443.367C201.403 471.559 179.31 507.874 164.823 537.159C157.581 551.799 152.244 564.675 148.717 573.89C146.953 578.497 145.643 582.189 144.773 584.728C144.339 585.997 144.014 586.978 143.799 587.642C143.691 587.973 143.611 588.225 143.558 588.394C143.531 588.478 143.51 588.543 143.497 588.585C143.491 588.606 143.486 588.621 143.482 588.632L143.478 588.646L143 588.5L143.478 588.647L143.441 588.766L138.318 593.889L138.277 593.916L138.276 593.917C138.276 593.917 138.274 593.918 138.272 593.919C138.27 593.921 138.265 593.924 138.26 593.928C138.248 593.935 138.231 593.946 138.209 593.961C138.165 593.99 138.1 594.034 138.017 594.089C137.85 594.199 137.612 594.358 137.323 594.55C136.745 594.933 135.962 595.449 135.148 595.98C133.541 597.032 131.757 598.181 131.224 598.447C130.985 598.567 130.607 598.787 130.066 599.084C129.541 599.373 128.892 599.717 128.161 600.053C126.704 600.722 124.89 601.374 123.033 601.499L123.017 601.5H0V597.89L0.0458984 597.79L9.5459 577.29L33.0459 526.291L33.0479 526.286L76.5479 434.286L76.5488 434.285L149.549 280.785L249.547 65.7891L273.046 14.791L273.087 14.7021L273.157 14.6357L281.03 7.22461C281.04 7.13288 281.072 7.06846 281.08 7.05176C281.106 6.9998 281.136 6.96408 281.146 6.95117C281.161 6.93453 281.173 6.92222 281.181 6.91504C281.196 6.90066 281.208 6.88964 281.214 6.88477C281.227 6.87442 281.238 6.86656 281.244 6.8623C281.257 6.85287 281.272 6.8428 281.285 6.83398C281.483 6.70241 282.494 6.07041 285.738 4.07422C289.037 2.04402 291.962 1.02466 294.069 0.513672C295.123 0.258259 295.973 0.130088 296.562 0.0654297C296.857 0.0331217 297.088 0.0170803 297.246 0.00878906C297.325 0.00464558 297.387 0.0020643 297.43 0.000976562C297.451 0.000436107 297.468 0.000148496 297.479 0H373.592L373.678 0.0332031ZM335.5 117C322.95 118.5 322.5 124.5 322.5 124.5L261.5 278V280C261.5 281.5 263 286.5 269.5 290.5C276 294.5 281.5 295 289 294.5C296.5 294 335.5 280 335.5 280L390 260C390 260 392.5 259 394 258C395.5 257 400.864 251 399.432 247.5C398 244.001 376.017 197.035 376 197L341.912 120.5C341.912 120.5 338 117 335.5 117Z" fill="#004681"/>
<path d="M330 442C330 442 416 396.7 428 423.5L525.5 601.5H563H662L666 599.5V594.5L662 586L551.5 368.5C551.5 368.5 525.5 351 451.5 363.5C427.825 367.499 354.5 388 330 442Z" fill="#004681" stroke="white"/>
</svg>
